<?xml version="1.0" encoding="UTF-8"?>
<!--Generator: Apple Native CoreSVG 341-->
<!DOCTYPE svg
PUBLIC "-//W3C//DTD SVG 1.1//EN"
       "http://www.w3.org/Graphics/SVG/1.1/DTD/svg11.dtd">
<svg version="1.1" xmlns="http://www.w3.org/2000/svg" xmlns:xlink="http://www.w3.org/1999/xlink" viewBox="0 0 569.481 604.736">
 <g>
  <rect height="604.736" opacity="0" width="569.481" x="0" y="0"/>
  <path d="M73.0706 171.143L156.567 55.9082C168.041 40.0391 160.229 27.3438 141.186 27.0996L20.3362 25.1465C4.46709 24.9023-3.58955 35.8887 1.5374 51.0254L40.5999 165.039C46.9476 183.35 61.1077 187.012 73.0706 171.143ZM261.791 581.787C261.791 594.482 272.289 604.736 284.741 604.736C297.436 604.736 307.69 594.482 307.69 581.787L307.69 400.879C307.69 261.719 231.03 143.311 96.5081 71.2891C82.5921 63.4766 70.1409 71.0449 65.014 81.7871C60.3753 91.7969 62.3284 104.492 74.2913 111.328C195.629 176.025 261.791 279.541 261.791 400.879ZM496.41 171.143C508.129 187.012 522.533 183.35 528.637 165.039L567.7 51.0254C573.071 35.8887 564.77 24.9023 549.145 25.1465L428.295 27.0996C409.008 27.3438 401.196 40.0391 412.914 55.9082ZM307.69 581.787L307.69 400.879C307.69 279.541 373.852 176.025 495.19 111.328C507.153 104.492 509.106 91.7969 504.467 81.7871C499.34 71.0449 486.889 63.4766 472.973 71.2891C338.451 143.311 261.791 261.719 261.791 400.879L261.791 581.787C261.791 594.482 272.289 604.736 284.741 604.736C297.436 604.736 307.69 594.482 307.69 581.787Z" fill="black" fill-opacity="0.85"/>
 </g>
</svg>
