<?xml version="1.0" encoding="UTF-8"?>
<!--Generator: Apple Native CoreSVG 341-->
<!DOCTYPE svg
PUBLIC "-//W3C//DTD SVG 1.1//EN"
       "http://www.w3.org/Graphics/SVG/1.1/DTD/svg11.dtd">
<svg version="1.1" xmlns="http://www.w3.org/2000/svg" xmlns:xlink="http://www.w3.org/1999/xlink" viewBox="0 0 764.21 636.475">
 <g>
  <rect height="636.475" opacity="0" width="764.21" x="0" y="0"/>
  <path d="M744.165 273.926L602.076 273.926C582.3 273.926 576.685 287.598 587.915 303.223L657.251 402.1C666.285 415.283 679.712 415.527 688.99 402.1L758.326 303.467C769.556 287.598 764.185 273.926 744.165 273.926ZM382.105 45.6543C532.74 45.6543 654.566 167.48 654.566 318.115C654.566 330.322 664.82 340.576 677.515 340.576C689.722 340.576 699.732 330.566 699.976 318.359C699.732 142.334 557.642 0 382.105 0C288.599 0 203.15 40.7715 144.8 106.689C133.814 118.652 137.476 134.277 147.486 141.357C156.275 147.949 167.994 148.193 178.98 136.475C229.273 80.0781 302.027 45.6543 382.105 45.6543ZM20.0443 362.061L162.134 362.061C181.91 362.061 187.281 348.389 176.294 332.764L106.958 233.887C97.9252 220.947 84.4974 220.703 75.2201 233.887L5.88414 332.52C-5.59047 348.389 0.0247683 362.061 20.0443 362.061ZM382.105 590.576C231.47 590.576 109.644 468.75 109.644 318.115C109.644 305.664 99.39 295.41 86.6947 295.41C74.4877 295.41 64.4779 305.42 64.2338 317.871C64.4779 493.896 206.568 635.986 382.105 635.986C475.611 635.986 561.06 595.215 619.41 529.541C630.396 517.334 626.734 501.953 616.724 494.629C607.935 488.281 596.216 487.793 585.23 499.756C534.937 555.908 462.183 590.576 382.105 590.576Z" fill="black" fill-opacity="0.85"/>
 </g>
</svg>
