<?xml version="1.0" encoding="UTF-8"?>
<!--Generator: Apple Native CoreSVG 341-->
<!DOCTYPE svg
PUBLIC "-//W3C//DTD SVG 1.1//EN"
       "http://www.w3.org/Graphics/SVG/1.1/DTD/svg11.dtd">
<svg version="1.1" xmlns="http://www.w3.org/2000/svg" xmlns:xlink="http://www.w3.org/1999/xlink" viewBox="0 0 667.236 666.748">
 <g>
  <rect height="666.748" opacity="0" width="667.236" x="0" y="0"/>
  <path d="M301.758 666.748L365.479 666.748C388.428 666.748 405.762 653.076 410.889 630.615L424.805 570.557L437.988 565.918L490.234 598.145C509.766 610.352 531.738 607.91 548.096 591.553L592.041 547.363C608.643 530.762 611.328 509.033 599.121 489.746L566.406 437.5L571.045 424.805L631.104 410.889C653.32 405.762 667.236 388.184 667.236 365.234L667.236 302.734C667.236 280.029 653.564 262.695 631.104 257.324L571.533 242.92L566.65 229.736L599.365 177.734C611.572 158.203 609.131 136.475 592.285 119.873L548.34 75.6836C532.227 59.5703 510.254 56.6406 490.723 68.8477L438.477 101.074L424.805 95.9473L410.889 36.1328C405.762 13.4277 388.428 0 365.479 0L301.758 0C278.809 0 261.475 13.4277 256.348 36.1328L242.432 95.9473L228.516 101.074L176.514 68.8477C156.982 56.6406 135.01 59.5703 118.896 75.6836L74.707 119.873C58.1055 136.475 55.6641 158.203 67.8711 177.734L100.586 229.736L95.459 242.92L36.1328 257.324C13.6719 262.695 0 280.029 0 302.734L0 365.234C0 388.184 13.916 405.762 36.1328 410.889L95.9473 424.805L100.83 437.5L68.1152 489.746C55.9082 509.033 58.5938 530.762 74.9512 547.363L119.141 591.553C135.498 607.91 157.471 610.352 177.002 598.145L229.004 565.918L242.432 570.557L256.348 630.615C261.475 653.076 278.809 666.748 301.758 666.748ZM306.152 624.756C299.561 624.756 295.898 621.582 294.678 615.479L276.367 538.33C258.301 533.447 241.211 526.611 228.027 518.799L160.645 560.791C155.518 563.965 150.146 563.721 145.508 558.594L107.666 520.752C102.783 516.113 102.539 511.475 105.957 505.859L147.705 438.477C141.113 425.781 133.545 408.691 128.662 390.625L51.2695 372.559C45.166 371.338 41.9922 367.676 41.9922 360.84L41.9922 306.885C41.9922 300.049 44.9219 296.631 51.2695 295.166L128.418 276.855C133.301 258.057 141.846 240.479 147.217 228.76L105.713 161.621C102.051 155.762 102.295 150.879 107.178 146.24L145.264 108.643C150.146 104.004 154.785 103.271 160.645 106.689L227.539 147.949C240.723 140.869 258.789 133.301 276.611 128.418L294.678 51.2695C295.898 44.9219 299.561 41.9922 306.152 41.9922L361.084 41.9922C367.92 41.9922 371.338 44.6777 372.559 51.2695L390.869 128.906C409.424 133.545 425.781 141.113 439.209 148.193L506.348 106.689C512.451 103.271 516.846 104.004 521.973 108.643L560.059 146.24C564.697 150.879 564.941 155.762 561.279 161.621L519.775 228.76C525.635 240.479 533.936 257.812 538.818 276.855L615.967 295.166C622.314 296.631 625.244 300.049 625.244 306.885L625.244 360.84C625.244 367.676 622.07 371.338 615.967 372.559L538.574 390.625C533.691 408.691 526.367 425.781 519.287 438.477L561.035 505.859C564.453 511.475 564.209 516.113 559.57 520.752L521.729 558.594C516.846 563.721 511.719 563.965 506.348 560.791L438.965 518.799C426.025 526.611 409.18 533.447 390.869 538.33L372.559 615.479C371.338 621.826 367.92 624.756 361.084 624.756ZM333.74 453.369C400.146 453.369 453.857 399.658 453.857 333.252C453.857 266.602 400.146 213.135 333.74 213.135C267.09 213.135 213.379 266.602 213.379 333.252C213.379 399.658 267.09 453.369 333.74 453.369ZM333.74 411.621C290.283 411.621 255.371 376.465 255.371 333.252C255.371 289.795 290.283 254.883 333.74 254.883C376.953 254.883 412.109 289.795 412.109 333.252C412.109 376.465 376.953 411.621 333.74 411.621Z" fill="black" fill-opacity="0.85"/>
 </g>
</svg>
