<?xml version="1.0" encoding="UTF-8"?>
<!--Generator: Apple Native CoreSVG 341-->
<!DOCTYPE svg
PUBLIC "-//W3C//DTD SVG 1.1//EN"
       "http://www.w3.org/Graphics/SVG/1.1/DTD/svg11.dtd">
<svg version="1.1" xmlns="http://www.w3.org/2000/svg" xmlns:xlink="http://www.w3.org/1999/xlink" viewBox="0 0 635.986 636.475">
 <g>
  <rect height="636.475" opacity="0" width="635.986" x="0" y="0"/>
  <path d="M317.871 635.986C493.408 635.986 635.986 493.652 635.986 318.115C635.986 142.578 493.408 0 317.871 0C142.334 0 0 142.578 0 318.115C0 493.652 142.334 635.986 317.871 635.986ZM317.871 590.576C167.236 590.576 45.4102 468.75 45.4102 318.115C45.4102 167.48 167.236 45.6543 317.871 45.6543C468.506 45.6543 590.332 167.48 590.332 318.115C590.332 468.75 468.506 590.576 317.871 590.576Z" fill="black" fill-opacity="0.85"/>
  <path d="M261.963 492.92L390.625 492.92C401.855 492.92 410.645 484.619 410.645 473.633C410.645 462.891 401.855 454.346 390.625 454.346L347.656 454.346L347.656 283.691C347.656 269.531 340.332 259.766 326.66 259.766L266.602 259.766C255.371 259.766 246.582 268.066 246.582 278.809C246.582 289.795 255.371 298.096 266.602 298.096L304.932 298.096L304.932 454.346L261.963 454.346C250.732 454.346 242.188 462.891 242.188 473.633C242.188 484.619 250.732 492.92 261.963 492.92ZM315.674 204.102C336.426 204.102 352.539 187.5 352.539 167.236C352.539 146.484 336.426 129.883 315.674 129.883C295.166 129.883 278.809 146.484 278.809 167.236C278.809 187.5 295.166 204.102 315.674 204.102Z" fill="black" fill-opacity="0.85"/>
 </g>
</svg>
