<?xml version="1.0" encoding="UTF-8"?>
<!--Generator: Apple Native CoreSVG 341-->
<!DOCTYPE svg
PUBLIC "-//W3C//DTD SVG 1.1//EN"
       "http://www.w3.org/Graphics/SVG/1.1/DTD/svg11.dtd">
<svg version="1.1" xmlns="http://www.w3.org/2000/svg" xmlns:xlink="http://www.w3.org/1999/xlink" viewBox="0 0 635.986 636.475">
 <g>
  <rect height="636.475" opacity="0" width="635.986" x="0" y="0"/>
  <path d="M46.3867 186.279C127.197 266.113 238.037 312.012 356.201 311.523C446.533 311.035 532.227 282.471 603.027 230.957L588.135 199.951C522.217 249.756 441.406 277.588 356.201 278.076C242.432 279.053 136.23 232.422 61.2793 152.344ZM15.3809 362.061C179.199 500.977 411.621 526.855 599.854 430.664L599.854 392.334C415.283 495.605 181.885 469.482 22.7051 323.975ZM168.945 578.125L208.74 588.379C190.674 544.434 180.664 498.291 178.955 450.439C163.33 286.865 230.713 129.395 353.76 25.8789L318.115 12.9395C196.045 122.803 130.615 284.18 145.752 451.66C146.973 494.629 154.785 537.109 168.945 578.125ZM376.953 610.596L408.447 597.412C350.83 514.648 318.848 416.016 318.848 312.744C318.848 213.379 347.9 119.141 401.123 39.3066L368.896 27.3438C314.941 111.816 285.4 210.205 285.4 312.744C285.4 420.654 317.871 523.438 376.953 610.596ZM563.721 492.676L585.205 466.797C480.469 407.227 413.818 297.363 411.133 173.584C409.912 128.174 417.725 83.4961 433.838 42.2363L401.855 32.959C384.766 77.3926 376.709 125 377.686 174.072C380.371 306.885 451.904 426.514 563.721 492.676ZM179.688 308.35C205.566 308.35 226.562 287.109 226.562 260.986C226.562 235.352 205.566 214.111 179.688 214.111C153.564 214.111 132.324 235.352 132.324 260.986C132.324 287.109 153.564 308.35 179.688 308.35ZM420.898 335.693C445.801 335.693 466.309 315.186 466.309 289.795C466.309 264.648 445.801 244.141 420.898 244.141C395.508 244.141 374.756 264.648 374.756 289.795C374.756 315.186 395.508 335.693 420.898 335.693ZM328.857 517.334C354.736 517.334 375.732 496.582 375.732 470.459C375.732 444.336 354.736 423.584 328.857 423.584C302.734 423.584 281.982 444.336 281.982 470.459C281.982 496.582 302.734 517.334 328.857 517.334ZM317.871 635.986C493.408 635.986 635.986 493.652 635.986 318.115C635.986 142.578 493.408 0 317.871 0C142.334 0 0 142.578 0 318.115C0 493.652 142.334 635.986 317.871 635.986ZM317.871 598.877C162.842 598.877 37.1094 473.145 37.1094 318.115C37.1094 162.842 162.842 37.1094 317.871 37.1094C473.145 37.1094 598.877 162.842 598.877 318.115C598.877 473.145 473.145 598.877 317.871 598.877Z" fill="black" fill-opacity="0.85"/>
 </g>
</svg>
