<?xml version="1.0" encoding="UTF-8"?>
<!--Generator: Apple Native CoreSVG 341-->
<!DOCTYPE svg
PUBLIC "-//W3C//DTD SVG 1.1//EN"
       "http://www.w3.org/Graphics/SVG/1.1/DTD/svg11.dtd">
<svg version="1.1" xmlns="http://www.w3.org/2000/svg" xmlns:xlink="http://www.w3.org/1999/xlink" viewBox="0 0 552.246 854.248">
 <g>
  <rect height="854.248" opacity="0" width="552.246" x="0" y="0"/>
  <path d="M552.246 377.441L552.246 618.408C552.246 701.904 505.859 748.535 422.119 748.535L130.127 748.535C46.3867 748.535 0 701.904 0 618.408L0 377.441C0 293.945 46.3867 247.559 130.127 247.559L199.707 247.559L199.707 290.771L129.883 290.771C74.4629 290.771 43.2129 322.021 43.2129 377.441L43.2129 618.652C43.2129 674.072 74.4629 705.322 129.883 705.322L422.119 705.322C477.783 705.322 509.033 674.072 509.033 618.652L509.033 377.441C509.033 322.021 477.783 290.771 422.119 290.771L352.539 290.771L352.539 247.559L422.119 247.559C505.859 247.559 552.246 293.945 552.246 377.441Z" fill="black" fill-opacity="0.85"/>
  <path d="M168.945 192.139C174.072 192.139 179.932 189.941 183.838 185.547L237.061 129.883L276.123 88.8672L315.186 129.883L368.164 185.547C372.07 189.941 377.686 192.139 382.812 192.139C394.043 192.139 402.588 184.082 402.588 173.096C402.588 167.48 400.146 163.086 396.24 158.936L291.748 57.373C286.377 52.002 281.494 50.293 276.123 50.293C270.752 50.293 265.869 52.002 260.498 57.373L156.006 158.936C151.855 163.086 149.658 167.48 149.658 173.096C149.658 184.082 157.715 192.139 168.945 192.139ZM276.123 504.639C287.598 504.639 297.607 495.117 297.607 483.887L297.607 156.25L294.434 78.125C293.945 68.1152 286.133 59.8145 276.123 59.8145C266.113 59.8145 258.301 68.1152 257.812 78.125L254.639 156.25L254.639 483.887C254.639 495.117 264.648 504.639 276.123 504.639Z" fill="black" fill-opacity="0.85"/>
 </g>
</svg>
