<?xml version="1.0" encoding="UTF-8"?>
<!--Generator: Apple Native CoreSVG 341-->
<!DOCTYPE svg
PUBLIC "-//W3C//DTD SVG 1.1//EN"
       "http://www.w3.org/Graphics/SVG/1.1/DTD/svg11.dtd">
<svg version="1.1" xmlns="http://www.w3.org/2000/svg" xmlns:xlink="http://www.w3.org/1999/xlink" viewBox="0 0 864.746 676.514">
 <g>
  <rect height="676.514" opacity="0" width="864.746" x="0" y="0"/>
  <path d="M137.207 50.0488C137.207 58.1834 139.483 65.7995 143.462 72.2656L129.15 72.2656C95.459 72.2656 79.5898 93.0176 79.5898 129.883C79.5898 235.596 175.537 403.32 265.381 403.32C355.225 403.32 451.172 235.596 451.172 129.883C451.172 93.0176 435.303 72.2656 401.611 72.2656L386.812 72.2656C390.791 65.7995 393.066 58.1834 393.066 50.0488C393.066 42.3315 390.975 35.0642 387.301 28.8086L397.705 28.8086C461.914 28.8086 494.385 62.7441 494.385 130.615C494.385 253.772 388.931 429.324 286.639 444.952C289.29 566.545 327.32 633.301 395.02 633.301C475.342 633.301 500.977 564.453 522.705 439.453C545.898 308.594 584.717 256.836 659.18 256.836C735.194 256.836 773.581 318.146 784.815 442.811C778.771 441.579 772.513 440.947 766.113 440.918C757.798 440.881 749.725 441.877 742.059 443.896C734.927 346.982 708.454 300.293 659.18 300.293C611.328 300.293 583.252 338.135 564.941 449.707C540.283 604.248 492.92 676.514 397.461 676.514C301.834 676.514 246.626 596.59 243.483 444.911C141.315 428.87 36.1328 253.613 36.1328 130.615C36.1328 62.7441 68.6035 28.8086 133.057 28.8086L142.973 28.8086C139.298 35.0642 137.207 42.3315 137.207 50.0488Z" fill="black" fill-opacity="0.85"/>
  <path d="M179.932 93.0176C203.369 93.0176 222.656 73.7305 222.656 50.0488C222.656 26.6113 203.369 7.32422 179.932 7.32422C156.494 7.32422 137.207 26.6113 137.207 50.0488C137.207 73.7305 156.494 93.0176 179.932 93.0176ZM350.342 93.0176C373.779 93.0176 393.066 73.7305 393.066 50.0488C393.066 26.6113 373.779 7.32422 350.342 7.32422C326.904 7.32422 307.617 26.6113 307.617 50.0488C307.617 73.7305 326.904 93.0176 350.342 93.0176ZM766.113 638.428C820.557 638.428 864.746 594.482 864.746 539.307C864.746 485.107 820.557 441.162 766.113 440.918C711.426 440.674 667.236 485.107 667.236 539.307C667.236 594.482 711.426 638.428 766.113 638.428ZM766.113 600.098C732.422 600.098 705.322 572.998 705.322 539.307C705.322 505.859 732.422 479.004 766.113 479.004C799.561 479.004 826.66 505.859 826.66 539.307C826.66 572.998 799.561 600.098 766.113 600.098Z" fill="black" fill-opacity="0.85"/>
 </g>
</svg>
